<svg width="335" height="134" viewBox="0 0 335 134" fill="none" xmlns="http://www.w3.org/2000/svg">
<g clip-path="url(#clip0_166_4046)">
<path d="M0.80127 133.2V76.7739H1.53852C1.63468 76.7098 1.73085 76.7098 1.85906 76.7098C2.08344 76.7098 2.33988 76.6777 2.59631 76.6777C12.5652 76.6777 22.5662 76.6777 32.5351 76.6777H40.3563V80.8752H44.5234V120.415H43.7541C43.2092 120.447 42.6963 120.447 42.2796 120.447H40.9333C40.773 120.447 40.5807 120.447 40.4204 120.447V124.581H36.1893V128.842H27.791V133.2H0.80127ZM17.758 122.947V118.781H30.3233C30.3233 116.987 30.3233 115.192 30.3233 113.43C30.3233 111.283 30.3233 109.136 30.3233 106.957V106.156H34.4583C34.5224 103.946 34.5224 97.3128 34.4263 95.134H30.3233V86.771H15.2578C15.1616 91.5132 15.1616 118.204 15.2578 122.947H17.758Z" fill="white"/>
<path d="M29.7785 77.4779C32.7595 77.4779 35.7085 77.4779 38.6896 77.4779H39.5871V81.6754H43.7542V119.645C43.2734 119.645 42.7926 119.645 42.3117 119.645C41.8309 119.645 41.4142 119.645 40.9655 119.645C40.5167 119.645 40.1 119.645 39.6512 119.645V123.779H35.4201V128.04H27.0218V132.398H1.60272V77.5099C1.92326 77.5099 2.27586 77.4459 2.5964 77.4459C11.6357 77.4459 20.7071 77.4459 29.7785 77.4459M14.5206 123.747H18.5915V119.581H31.1568C31.1568 115.352 31.1568 111.186 31.1568 106.957H35.2277C35.388 106.059 35.356 94.9408 35.1957 94.332H31.1568V85.969H14.5206C14.3603 86.7381 14.3924 123.202 14.5206 123.747ZM29.7785 75.8438C20.7392 75.8438 11.6678 75.8438 2.5964 75.8438C2.30791 75.8438 2.01942 75.8438 1.79504 75.8758C1.69888 75.8758 1.60272 75.8758 1.50655 75.8758L0 75.9719V133.968H28.5925V129.61H36.9907V125.349H41.2219V121.215C41.3501 121.215 41.4783 121.215 41.6066 121.215C41.8309 121.215 42.0553 121.215 42.2797 121.215C42.6964 121.215 43.2093 121.215 43.7542 121.215L45.2928 121.151V80.0413H41.1257V75.8438H34.1699H29.7144H29.7785ZM16.0592 87.5391H29.5541V95.9021H33.6891C33.7532 98.2412 33.7532 102.951 33.6891 105.322H29.5541V106.925C29.5541 109.103 29.5541 111.282 29.5541 113.397C29.5541 114.903 29.5541 116.441 29.5541 117.979H16.9888V122.145H16.0913C15.9951 116.153 15.9951 93.563 16.0913 87.5711L16.0592 87.5391Z" fill="black"/>
<path d="M303.234 116.185V101.927H307.369V97.7291H311.568V89.3341H315.735C315.799 88.6932 315.799 87.6038 315.735 86.7066C315.543 86.7066 315.35 86.7066 315.094 86.7066C314.838 86.7066 314.613 86.7066 314.389 86.7066C314.132 86.7066 313.908 86.7066 313.652 86.7066H313.363C312.978 86.7066 312.562 86.7066 312.177 86.7066H310.222H303.138V74.05H298.971V55.9142L299.548 55.754C300.157 55.5938 303.875 55.5938 304.612 55.5938C305.35 55.5938 307.561 55.5938 308.266 55.6899L308.972 55.786V57.3561C308.972 57.9649 308.972 58.5737 308.972 59.2145C308.972 59.8553 308.972 60.5282 308.972 61.1691V64.0208H313.171V76.6454H315.703V72.4799H319.902C319.902 71.9993 319.902 71.5507 319.902 71.0701C319.902 70.7497 319.902 70.4292 319.902 70.1088C319.902 69.3718 319.902 68.6669 319.902 67.93V59.8553H324.069V55.818L324.774 55.7219C324.871 55.7219 324.935 55.7219 324.999 55.7219C325.159 55.7219 325.319 55.6899 325.48 55.6899C326.698 55.6899 327.916 55.6899 329.134 55.6899C330.352 55.6899 331.634 55.6899 332.852 55.6899C333.012 55.6899 333.173 55.6899 333.301 55.7219C333.333 55.7219 333.365 55.7219 333.429 55.7219L334.134 55.818V65.7831H329.967V66.0074C329.967 66.7764 329.967 67.5454 329.967 68.3145C329.967 69.0835 329.967 69.8525 329.967 70.6215V82.5411H325.768V95.2298H321.569V103.625H317.402V107.854H316.633C316.056 107.886 315.479 107.886 315.03 107.886H313.748C313.587 107.886 313.395 107.886 313.235 107.886V112.052H309.004V116.281H303.202L303.234 116.185Z" fill="white"/>
<path d="M304.676 56.3943C306.247 56.3943 307.722 56.3943 308.234 56.4904C308.234 57.3876 308.234 58.2848 308.234 59.214C308.234 60.1432 308.234 61.0724 308.234 61.9696V64.8213H312.434V77.4459H316.569V73.2805H320.736C320.768 72.191 320.736 71.1657 320.736 70.1083C320.736 69.0509 320.736 67.9935 320.736 66.9682V60.6559H324.903V56.5224C325.159 56.4904 325.352 56.4584 325.512 56.4584C326.73 56.4584 327.916 56.4584 329.134 56.4584C330.352 56.4584 331.634 56.4584 332.884 56.4584C333.045 56.4584 333.173 56.4904 333.333 56.5224V64.9816H329.166C329.166 66.071 329.166 67.1925 329.166 68.3139C329.166 69.4034 329.166 70.5248 329.166 71.6143V81.7396H324.967V94.4282H320.768V102.823H316.601V107.085C316.056 107.085 315.543 107.085 315.03 107.085C314.517 107.085 314.165 107.085 313.748 107.085C313.331 107.085 312.882 107.085 312.434 107.085V111.218H308.202V115.448H304.003V102.791H308.138V98.5937H312.337V90.1987H316.376C316.569 89.6219 316.601 87.2508 316.472 86.0012C316.024 86.0012 315.575 86.0012 315.094 86.0012C314.613 86.0012 314.133 86.0012 313.62 86.0012C313.107 86.0012 313.427 86.0012 313.363 86.0012C312.946 86.0012 312.53 86.0012 312.145 86.0012C311.504 86.0012 310.863 86.0012 310.222 86.0012H303.939V73.3445H299.772V56.6186C300.093 56.5224 302.465 56.4904 304.612 56.4904M304.612 54.8883C302.529 54.8883 299.964 54.9203 299.355 55.0806L298.169 55.401V74.9466H302.336V87.6033H311.183H312.145C312.562 87.6033 312.946 87.6033 313.363 87.6033C313.459 87.6033 313.556 87.6033 313.652 87.6033C313.908 87.6033 314.132 87.6033 314.389 87.6033C314.581 87.6033 314.774 87.6033 314.966 87.6033C314.966 87.9557 314.966 88.3082 314.966 88.6286H310.735V97.0236H306.536V101.221H302.401V117.082H309.805V112.852H314.036V108.687C314.165 108.687 314.293 108.687 314.389 108.687C314.613 108.687 314.806 108.687 315.03 108.687C315.479 108.687 316.056 108.687 316.665 108.687L318.203 108.623V104.425H322.37V96.0303H326.57V83.3417H330.769V70.5889C330.769 69.8199 330.769 69.0509 330.769 68.3139C330.769 67.7372 330.769 67.1604 330.769 66.5837H334.936V55.1446L333.557 54.9524C333.557 54.9524 333.493 54.9524 333.461 54.9524C333.333 54.9524 333.109 54.8883 332.884 54.8883C331.634 54.8883 330.384 54.8883 329.134 54.8883C327.884 54.8883 326.698 54.8883 325.512 54.8883C325.287 54.8883 325.095 54.8883 324.903 54.9524C324.839 54.9524 324.775 54.9524 324.71 54.9524L323.3 55.1126V59.0858H319.133V67.9615C319.133 68.6984 319.133 69.4034 319.133 70.1403C319.133 70.4608 319.133 70.7812 319.133 71.1016C319.133 71.2938 319.133 71.4861 319.133 71.7104H314.934V75.8759H314.004V63.2513H309.805V61.1685C309.805 60.5277 309.805 59.8869 309.805 59.246C309.805 58.6052 309.805 57.9964 309.805 57.3555V56.5224V55.1126L308.427 54.9203C307.722 54.8242 305.766 54.8242 304.676 54.8242L304.612 54.8883Z" fill="black"/>
<path d="M198.32 52.9653V52.1963C198.288 51.5234 198.288 50.8505 198.288 50.1776C198.288 49.8893 198.288 49.5688 198.288 49.2805C198.288 48.5755 198.288 47.9026 198.288 47.1977V23.4866H195.147C193.897 23.4866 192.647 23.4866 191.396 23.4866V24.4799L190.21 23.3584L189.794 23.2943V22.9419L188.351 21.532L189.794 21.6922V21.6281C189.794 20.9232 189.794 20.1862 189.794 19.4813C189.794 18.456 189.794 17.4306 189.794 16.4053V13.4574H198.224V11.1824C198.224 8.26659 198.224 5.35076 198.224 2.43493C198.224 2.24268 198.224 2.01838 198.224 1.82613V0.800781H208.065L208.129 1.53775C208.129 1.63388 208.129 1.69796 208.129 1.79409C208.129 1.98634 208.193 2.21063 208.193 2.46697C208.193 4.19724 208.193 5.89547 208.193 7.62575V9.25989H216.527V19.2891H215.726C214.924 19.2891 214.059 19.3211 212.905 19.3211C211.751 19.3211 210.437 19.3211 209.924 19.3211C209.411 19.3211 208.77 19.3211 208.193 19.3211V42.9682H216.495V52.9973H198.192L198.32 52.9653Z" fill="white"/>
<path d="M207.424 1.6021C207.424 1.89048 207.488 2.14682 207.488 2.4352C207.488 4.67814 207.488 6.88905 207.488 9.13199C207.488 11.3749 207.488 9.67671 207.488 10.0292H215.822V18.4883C214.892 18.4883 213.963 18.4883 213.033 18.4883C212.104 18.4883 211.046 18.4883 210.052 18.4883C209.058 18.4883 208.385 18.4883 207.52 18.4883V43.7054H215.822V52.1325H199.089C199.089 51.1712 199.089 50.2099 199.089 49.2487C199.089 48.2554 199.089 47.2621 199.089 46.2367V22.6538H198.192C197.166 22.6538 196.14 22.6538 195.115 22.6538C194.089 22.6538 192.614 22.6538 191.332 22.6538C191.076 22.6538 190.851 22.5897 190.595 22.5576C190.595 21.5002 190.627 20.4749 190.627 19.4175C190.627 17.9436 190.627 16.5017 190.627 15.0277V14.1946H199.057V13.2975C199.057 9.64467 199.057 6.02391 199.057 2.37111C199.057 2.08274 199.057 1.79436 199.057 1.53802H207.359M208.898 0H197.583V1.53802C197.519 1.63415 197.519 1.69823 197.519 1.79436C197.519 1.98661 197.519 2.2109 197.519 2.4352C197.519 5.35103 197.519 8.23482 197.519 11.1506V12.6566H189.089V16.4055C189.089 17.4309 189.089 18.4562 189.089 19.4495C189.089 19.8981 189.089 20.3467 189.089 20.7953L186.204 20.4428L189.056 23.2626V23.9995L189.922 24.0956L192.23 26.3706V24.2559C193.224 24.2559 194.185 24.2559 195.179 24.2559H196.717H197.551V47.1659C197.551 47.8709 197.551 48.5758 197.551 49.2487C197.551 49.5371 197.551 49.8254 197.551 50.1459C197.551 50.8187 197.551 51.4916 197.551 52.1966L197.615 53.7346H217.489V42.1033H209.187V20.0904C209.475 20.0904 209.796 20.0904 210.116 20.0904C210.597 20.0904 211.11 20.0904 211.591 20.0904C212.071 20.0904 212.584 20.0904 213.065 20.0904C214.187 20.0904 215.085 20.0904 215.886 20.0904H217.457V8.42707H209.122V7.56193C209.122 5.8637 209.122 4.13343 209.122 2.4352C209.122 2.14682 209.122 1.92253 209.058 1.69823C209.058 1.63415 209.058 1.53802 209.058 1.47394L208.93 0.0320421L208.898 0Z" fill="black"/>
<path d="M227.682 52.9666V48.8011C227.522 48.8011 227.361 48.8011 227.169 48.8011H225.951C225.951 48.8011 224.989 48.8011 224.637 48.8011H219.284V48.0321C219.284 47.0388 219.284 46.0775 219.284 45.1483C219.284 44.7318 219.284 44.2832 219.284 43.8666C219.284 42.9054 219.284 41.9441 219.284 40.9828V40.4061C219.027 40.4061 218.803 40.4061 218.579 40.4061H217.232C216.783 40.4061 216.367 40.4061 215.918 40.4061H215.149V21.9498H219.284C219.284 21.5653 219.284 21.1808 219.284 20.8284C219.284 20.54 219.284 20.2516 219.284 19.9632C219.284 19.3224 219.284 18.6495 219.284 18.0087V13.5228H223.419V9.42138L224.124 9.3573C224.669 9.29322 225.182 9.29322 225.566 9.29322C225.951 9.29322 225.983 9.29322 226.207 9.29322C226.4 9.29322 226.592 9.29322 226.784 9.29322H227.009C227.361 9.29322 227.746 9.29322 228.099 9.29322H229.798H231.849V5.0957H246.081V9.26117H250.248V13.4907H254.415L254.479 14.2277C254.543 14.9326 254.543 15.6055 254.543 16.2784C254.543 16.5668 254.543 16.8231 254.543 17.1115C254.543 17.7523 254.543 18.3932 254.543 19.0661V19.8991V21.9498H258.678V31.0818C258.678 31.2741 258.646 31.5304 258.39 31.7547C258.39 31.7547 258.294 31.8508 258.134 31.9149C258.005 31.979 257.877 32.0111 257.845 32.0111C257.813 32.0111 257.749 32.0111 257.717 32.0111C257.685 32.0111 257.621 32.0111 257.589 32.0111H257.332H229.413V38.7719C230.919 38.836 234.734 38.8681 238.612 38.8681C242.491 38.8681 243.517 38.8681 244.446 38.804V34.6385H254.223L254.383 35.2473C254.576 35.9843 254.608 42.5529 254.447 43.8987L254.383 44.6036H250.28V48.8972H241.914V53.0627H227.682V52.9666ZM229.349 21.8217C230.342 21.8217 232.458 21.8858 235.663 21.8858C239.478 21.8858 242.972 21.8537 244.414 21.7896V19.3224C243.421 19.2903 241.273 19.2583 238.035 19.2583C234.798 19.2583 230.791 19.2903 229.349 19.3544V21.8217Z" fill="white"/>
<path d="M245.248 5.8322V9.99768H249.415V14.2272H253.646C253.742 15.1885 253.678 16.1177 253.678 17.0149C253.678 17.9441 253.678 18.8733 253.678 19.7705V22.6223H257.813V30.9852C257.813 30.9852 257.781 31.0173 257.749 31.0173H257.685H257.621H257.557C257.492 31.0173 257.396 31.0173 257.332 31.0173C247.876 31.0173 238.42 31.0173 228.964 31.0173C228.9 31.0173 228.868 31.0173 228.804 31.0173H228.74C228.74 31.0173 228.708 31.0173 228.612 31.0814V39.3162C228.932 39.4123 234.125 39.4443 238.612 39.4443C243.1 39.4443 244.735 39.4444 245.248 39.3482V35.2148H253.614C253.774 35.7916 253.806 42.232 253.678 43.5778H249.511V47.8714H241.145V52.0369H228.515V47.9035C228.067 47.9035 227.618 47.9035 227.201 47.9035C226.784 47.9035 226.368 47.9035 225.983 47.9035C225.598 47.9035 225.823 47.9035 225.727 47.9035C225.374 47.9035 225.021 47.9035 224.637 47.9035C224.06 47.9035 223.515 47.9035 222.938 47.9035H220.085C220.085 46.4936 220.085 45.1158 220.085 43.738C220.085 42.3602 220.085 40.9824 220.085 39.5084C219.572 39.5084 219.091 39.5084 218.579 39.5084C218.066 39.5084 217.681 39.5084 217.232 39.5084C216.783 39.5084 216.367 39.5084 215.95 39.5084V22.6543H220.053C220.085 21.693 220.053 20.7959 220.053 19.8666C220.053 18.9054 220.053 17.9762 220.053 17.0149V14.1952H224.188V10.0297C224.637 9.96563 225.086 9.96563 225.534 9.96563C225.983 9.96563 226.336 9.96563 226.752 9.96563C227.169 9.96563 226.913 9.96563 227.009 9.96563C227.361 9.96563 227.746 9.96563 228.099 9.96563C228.676 9.96563 229.221 9.96563 229.798 9.96563H232.65V5.76812H245.28M235.696 22.6223C240.087 22.6223 244.927 22.5582 245.248 22.4941V18.5529C244.863 18.4888 241.594 18.4568 238.068 18.4568C234.542 18.4568 228.9 18.5209 228.579 18.585V22.5261C228.996 22.5902 232.202 22.6223 235.696 22.6223ZM246.883 4.16602H231.048V8.36353H229.798C229.509 8.36353 229.253 8.36353 228.964 8.36353C228.676 8.36353 228.387 8.36353 228.131 8.36353C227.874 8.36353 227.393 8.36353 227.041 8.36353C226.977 8.36353 226.881 8.36353 226.816 8.36353C226.624 8.36353 226.432 8.36353 226.24 8.36353C226.015 8.36353 225.823 8.36353 225.598 8.36353C225.214 8.36353 224.669 8.36353 224.092 8.42761L222.649 8.58782V12.5931H218.514V17.88C218.514 18.5209 218.514 19.1938 218.514 19.8346C218.514 20.123 218.514 20.4114 218.514 20.6997C218.514 20.7959 218.514 20.924 218.514 21.0202H214.379V41.0465H215.95C216.335 41.1105 216.751 41.1105 217.296 41.1105C217.841 41.1105 217.745 41.1105 217.969 41.1105C218.162 41.1105 218.354 41.1105 218.514 41.1105C218.514 42.0077 218.514 42.9049 218.514 43.77C218.514 44.1866 218.514 44.6031 218.514 45.0517C218.514 45.9809 218.514 46.9742 218.514 47.9675V49.5376H223.835H224.669C225.021 49.5376 225.374 49.5376 225.727 49.5376H225.983C226.175 49.5376 226.4 49.5376 226.592 49.5376C226.688 49.5376 226.816 49.5376 226.913 49.5376V53.7031H242.747V49.5376H251.114V45.244H255.153L255.313 43.8021C255.441 42.6486 255.473 35.8236 255.217 34.8623L254.896 33.6768H243.709V37.8743C242.715 37.8743 241.113 37.8743 238.677 37.8743C235.087 37.8743 231.977 37.8743 230.278 37.8102V32.6194H250.569H257.396C257.46 32.6194 257.525 32.6194 257.589 32.6194H257.653C257.717 32.6194 257.781 32.6194 257.845 32.6194C257.909 32.6194 257.973 32.6194 258.005 32.6194C258.102 32.6194 258.294 32.5873 258.518 32.4592C258.775 32.331 258.935 32.2028 258.999 32.1388C259.416 31.7543 259.544 31.2736 259.544 30.8891V20.9881H255.409V19.7385C255.409 19.4501 255.409 19.1938 255.409 18.9054C255.409 18.2645 255.409 17.6237 255.409 16.9508C255.409 16.6945 255.409 16.4061 255.409 16.1498C255.409 15.4769 255.409 14.804 255.345 14.035L255.217 12.5931H251.114V8.36353H246.947V4.19806L246.883 4.16602ZM230.182 20.0909C231.753 20.0589 234.574 20.0268 238.068 20.0268C241.561 20.0268 242.491 20.0268 243.645 20.0589V20.9561C242.01 20.9881 239.125 21.0202 235.696 21.0202C232.266 21.0202 231.336 21.0202 230.182 20.9881V20.0909Z" fill="black"/>
<path d="M246.017 107.853C244.735 107.853 241.69 107.853 240.952 107.757L240.311 107.661L240.247 107.02C240.183 106.283 240.183 105.514 240.183 104.809C240.183 104.425 240.183 104.008 240.183 103.592H235.984V99.3944H231.945L231.849 98.6894C231.785 98.1127 231.785 97.6 231.785 97.0873C231.785 96.8951 231.785 96.7028 231.785 96.5106C231.785 95.9979 231.785 95.5173 231.785 95.0046V90.9673H227.938L227.778 90.3905C227.554 89.5895 227.554 82.7004 227.682 81.611L227.778 80.9061H231.785V68.3456H232.554C233.131 68.2815 233.708 68.2815 234.125 68.2815C234.541 68.2815 235.215 68.2815 235.439 68.2815C235.663 68.2815 235.792 68.2815 235.952 68.2815V64.084H266.98V72.447H271.18V86.7057H270.378C269.609 86.7057 268.808 86.7377 267.782 86.7377C266.756 86.7377 265.474 86.7377 265.025 86.7377H264.512C263.711 86.7377 262.942 86.7377 262.14 86.7377H241.85V93.4666C243.164 93.4986 246.305 93.5627 250.44 93.5627C254.575 93.5627 255.922 93.5627 256.98 93.4986V89.3972H266.948V99.3944H262.781V103.592H254.447V107.469L253.87 107.629C253.229 107.821 247.139 107.853 245.953 107.853H246.017ZM256.98 76.6124V74.1132H246.081V76.6124H256.98Z" fill="white"/>
<path d="M266.243 64.8529V73.2159H270.442V85.9045C269.577 85.9045 268.712 85.9045 267.846 85.9045C266.981 85.9045 266.019 85.9045 265.121 85.9045C264.224 85.9045 264.769 85.9045 264.609 85.9045C263.839 85.9045 263.102 85.9045 262.333 85.9045C261.147 85.9045 259.961 85.9045 258.775 85.9045H241.145V94.1714C241.433 94.2675 246.177 94.2996 250.537 94.2996C254.896 94.2996 257.46 94.2675 257.877 94.2034V90.1341H266.243V98.5291H262.076V102.727H253.742V106.828C253.39 106.924 249.447 106.988 246.049 106.988C242.651 106.988 241.626 106.988 241.113 106.892C240.985 105.546 241.113 104.169 241.017 102.727H236.85V98.5291H232.715C232.618 97.7922 232.682 97.1193 232.65 96.4464C232.65 95.7415 232.65 95.0045 232.65 94.2996C232.65 93.5946 232.65 92.9218 232.65 92.2168C232.65 91.5119 232.65 90.839 232.65 90.1021H228.612C228.451 89.5253 228.387 82.8605 228.547 81.6429H232.65C232.65 79.4961 232.65 77.4134 232.65 75.3627C232.65 73.312 232.65 71.2293 232.65 69.0184C233.163 69.0184 233.676 68.9863 234.189 68.9863C234.702 68.9863 235.054 68.9863 235.503 68.9863C235.952 68.9863 236.369 68.9863 236.817 68.9863V64.8209H266.243M245.312 77.3814H257.813V73.28H245.312V77.3814ZM267.846 63.2188H235.215V67.4163C235.087 67.4163 234.958 67.4163 234.862 67.4163C234.638 67.4163 234.413 67.4163 234.189 67.4163C233.74 67.4163 233.163 67.4163 232.586 67.4483L231.08 67.5124V75.3627V78.4387V80.0408H227.169L227.009 81.4507C226.881 82.5722 226.849 89.5573 227.137 90.5507L227.458 91.7042H231.112V94.2996C231.112 94.5239 231.112 94.7482 231.112 94.9404C231.112 95.4531 231.112 95.9658 231.112 96.4784C231.112 96.6707 231.112 96.8629 231.112 97.0231C231.112 97.5358 231.112 98.1126 231.176 98.7534L231.368 100.163H235.311V104.361H239.51C239.51 104.489 239.51 104.649 239.51 104.777C239.51 105.514 239.51 106.283 239.574 107.084L239.702 108.366L240.985 108.526C241.69 108.622 244.19 108.622 246.145 108.622C251.05 108.622 253.774 108.526 254.319 108.366L255.441 108.014V104.329H263.775V100.131H267.942V88.532H256.371V92.6654C255.185 92.6654 253.293 92.6975 250.633 92.6975C247.972 92.6975 244.446 92.6975 242.844 92.6334V87.5067H260.666H262.461C263.23 87.5067 263.968 87.5067 264.737 87.5067H265.25C265.698 87.5067 266.147 87.5067 266.596 87.5067C267.045 87.5067 267.526 87.5067 267.974 87.5067C269.032 87.5067 269.833 87.5067 270.603 87.5067H272.173V71.6138H267.974V63.2508L267.846 63.2188ZM246.915 74.8821H256.21V75.7792H246.915V74.8821Z" fill="black"/>
<path d="M164.182 116.25C161.714 116.25 157.483 116.25 156.938 116.122L156.297 115.994V112.02H152.098V107.823H147.931V85.073H152.098C152.098 84.3681 152.098 83.6632 152.098 82.9903C152.098 82.5417 152.098 82.1251 152.098 81.7086C152.098 80.7473 152.098 79.8181 152.098 78.8248V76.678H156.265V72.4805H183.095V76.6459H187.23V103.529H186.46C185.915 103.593 185.37 103.593 184.986 103.593H183.607C183.447 103.593 183.287 103.593 183.095 103.593C183.095 104.843 183.095 106.093 183.095 107.31C183.095 108.592 183.095 109.874 183.095 111.187V111.988H174.728V115.865L174.183 116.058C173.606 116.25 167.003 116.25 164.182 116.25ZM168.83 106.125C168.83 105.708 168.83 105.292 168.83 104.875C168.83 104.138 168.83 103.401 168.894 102.632L168.959 101.927H173.062V93.5001H177.164V90.9367C177.036 90.9367 176.876 90.9367 176.716 90.9367C176.491 90.9367 176.267 90.9367 176.043 90.9367C175.818 90.9367 175.594 90.9367 175.369 90.9367C174.953 90.9367 174.376 90.9367 173.799 90.9047L173.062 90.8406V86.3867C173.062 85.7459 173.062 85.1051 173.062 84.4642C173.062 84.1758 173.062 83.8874 173.062 83.5991C173.062 83.2466 173.062 82.8941 173.062 82.5417H166.266C166.266 82.9582 166.266 83.4068 166.266 83.8554C166.266 84.0477 166.266 84.2079 166.266 84.4001C166.266 84.9128 166.298 85.4896 166.106 86.1304L165.945 86.7072H162.067C161.971 89.5909 162.003 99.2677 162.099 101.927C162.259 101.927 162.419 101.927 162.612 101.927C162.804 101.927 163.029 101.927 163.253 101.927C163.477 101.927 163.702 101.927 163.926 101.927C164.343 101.927 164.92 101.927 165.497 101.959L166.234 102.023V106.125H168.766H168.83Z" fill="white"/>
<path d="M182.293 73.281V77.4465H186.428V102.76C185.947 102.76 185.467 102.76 184.986 102.76C184.505 102.76 184.088 102.76 183.607 102.76C183.127 102.76 182.742 102.76 182.325 102.76C182.325 105.547 182.325 108.303 182.325 111.155H173.959V115.256C173.606 115.352 168.67 115.416 164.215 115.416C159.759 115.416 157.515 115.384 157.131 115.288V111.187H152.931V106.989H148.764V85.8415H152.899C152.931 84.3996 152.899 83.0538 152.899 81.676C152.899 80.2982 152.899 78.9204 152.899 77.4465H157.066V73.249H182.293M162.676 102.696C163.125 102.696 163.541 102.696 163.99 102.696C164.439 102.696 164.984 102.696 165.497 102.728V106.893H169.568C169.696 105.483 169.536 104.105 169.696 102.696H173.895V94.2686H177.998V90.1351C177.581 90.1351 177.164 90.1351 176.748 90.1351C176.331 90.1351 175.85 90.1351 175.402 90.1351C174.953 90.1351 174.376 90.1351 173.863 90.1031V87.2513C173.863 86.3221 173.863 85.3929 173.863 84.4957C173.863 83.5986 173.863 82.6693 173.863 81.7722H165.497C165.497 82.4771 165.497 83.182 165.497 83.8549C165.497 84.5278 165.593 85.2327 165.401 85.9697H161.394C161.233 87.5077 161.298 102.183 161.458 102.76C161.875 102.76 162.291 102.76 162.708 102.76M183.928 71.7109H155.496V75.9084H151.329V78.8563C151.329 79.8496 151.329 80.7788 151.329 81.7401C151.329 82.1887 151.329 82.6052 151.329 83.0538C151.329 83.4704 151.329 83.8869 151.329 84.3355H147.162V108.688H151.329V112.885H155.528V116.698L156.81 116.954C157.002 116.986 157.547 117.115 164.215 117.115C170.882 117.115 168.862 117.115 170.657 117.083C173.991 117.018 174.183 116.954 174.44 116.89L175.562 116.538V112.853H183.928V111.251C183.928 109.937 183.928 108.623 183.928 107.374C183.928 106.413 183.928 105.419 183.928 104.426C184.056 104.426 184.184 104.426 184.313 104.426C184.537 104.426 184.761 104.426 184.986 104.426C185.402 104.426 185.947 104.426 186.492 104.426L188.031 104.362V75.9084H183.896V71.743L183.928 71.7109ZM167.131 83.3743H172.324C172.324 83.4704 172.324 83.5345 172.324 83.6306C172.324 83.919 172.324 84.2073 172.324 84.5278C172.324 85.1686 172.324 85.8095 172.324 86.4503V87.2834V90.1351V91.6411L173.831 91.7372C174.44 91.7693 175.017 91.7693 175.466 91.7693C175.914 91.7693 175.914 91.7693 176.139 91.7693C176.235 91.7693 176.331 91.7693 176.427 91.7693V92.7305H172.324V101.158H168.285L168.125 102.6C168.029 103.433 168.061 104.202 168.061 104.939C168.061 105.099 168.061 105.227 168.061 105.387H167.131V101.35L165.625 101.254C165.016 101.222 164.439 101.222 163.99 101.222C163.541 101.222 163.541 101.222 163.317 101.222C163.189 101.222 163.061 101.222 162.932 101.222C162.868 98.1457 162.836 90.808 162.9 87.6038H166.587L166.907 86.4183C167.131 85.6492 167.099 84.9764 167.067 84.4316C167.067 84.2394 167.067 84.0792 167.067 83.919C167.067 83.7588 167.067 83.5665 167.067 83.4063L167.131 83.3743Z" fill="black"/>
<path d="M122.736 65.6233V61.4257H118.537V57.2603H114.338V47.135H118.473V38.804H119.21C119.627 38.7399 120.044 38.7079 120.588 38.7079C121.133 38.7079 121.005 38.7079 121.23 38.7079C121.422 38.7079 121.646 38.7079 121.839 38.7079H122.063C122.416 38.7079 122.8 38.7079 123.153 38.7079H124.82H126.839V36.1125H118.505V26.2115L119.21 26.1154C119.787 26.0513 120.364 26.0513 120.813 26.0513C121.262 26.0513 121.262 26.0513 121.486 26.0513C121.71 26.0513 121.935 26.0513 122.159 26.0513C122.384 26.0513 122.512 26.0513 122.672 26.0513V21.8217H126.903V17.6562H145.334V21.8217C145.591 21.8217 145.847 21.8217 146.072 21.8217H147.418C147.835 21.8217 148.283 21.8217 148.7 21.8217H149.405L149.502 22.5266C149.598 23.2636 149.566 23.9685 149.566 24.6414C149.566 24.9298 149.566 25.2182 149.566 25.5386C149.566 26.2435 149.566 26.9485 149.566 27.6213V28.5185V51.3004H153.733V60.7529L153.54 60.9772C153.508 61.0092 153.476 61.0733 153.412 61.1053C153.348 61.1694 153.22 61.2655 153.027 61.3296C152.931 61.3296 152.835 61.3617 152.739 61.3937C152.675 61.3937 152.579 61.3937 152.515 61.3937H132.769V65.5912H122.768L122.736 65.6233ZM135.301 55.562V51.3325H139.436V44.6036H128.602V55.562H135.301ZM139.436 34.4463V31.947H128.57V34.4463H139.436Z" fill="white"/>
<path d="M144.533 18.5205V22.6539C145.046 22.6539 145.559 22.6539 146.072 22.6539C146.585 22.6539 146.969 22.6539 147.418 22.6539C147.867 22.6539 148.251 22.6539 148.7 22.6539C148.828 23.6472 148.732 24.6085 148.764 25.5698C148.764 26.5631 148.764 27.5564 148.764 28.5817V52.1647H152.931V60.5277C152.931 60.5277 152.931 60.5277 152.899 60.5597C152.899 60.5597 152.867 60.5918 152.835 60.5918C152.771 60.5918 152.739 60.5918 152.675 60.5918C152.611 60.5918 152.579 60.5918 152.515 60.5918C145.719 60.5918 138.924 60.5918 132.128 60.5918C132.128 60.5918 132.096 60.5918 131.968 60.6558V64.7572H123.57V60.5597H119.37V56.3942H115.171V47.871H119.306V39.5081C119.755 39.5081 120.204 39.476 120.621 39.476C121.037 39.476 121.454 39.476 121.839 39.476C122.223 39.476 121.999 39.476 122.095 39.476C122.448 39.476 122.8 39.476 123.185 39.476C123.762 39.476 124.307 39.476 124.884 39.476H127.705V35.2785H119.37V26.8835C119.851 26.8194 120.364 26.8194 120.877 26.8194C121.39 26.8194 121.775 26.8194 122.223 26.8194C122.672 26.8194 123.089 26.8194 123.538 26.7874V22.5898H127.769V18.4244H144.597M127.865 35.1824H140.334V31.081H127.865V35.1824ZM127.865 56.2981H136.167V52.0686H140.302V43.7376H127.865V56.2981ZM146.2 16.8223H126.166V20.9877H121.935V25.2173C121.807 25.2173 121.71 25.2173 121.582 25.2173C121.358 25.2173 121.133 25.2173 120.909 25.2173C120.46 25.2173 119.851 25.2173 119.242 25.3134L117.832 25.4736V36.8806H126.166V37.8739H124.115H123.281C122.929 37.8739 122.544 37.8739 122.191 37.8739C122.127 37.8739 122.031 37.8739 121.967 37.8739C121.775 37.8739 121.582 37.8739 121.358 37.8739C121.133 37.8739 120.941 37.8739 120.717 37.8739C120.172 37.8739 119.723 37.8739 119.306 37.906L117.8 38.0021V46.2689H113.665V57.9963H117.864V62.1618H122.063V66.3593H133.667V62.1939C138.892 62.1939 144.116 62.1939 149.341 62.1939H152.611C152.707 62.1939 152.803 62.1939 152.931 62.1939C153.06 62.1939 153.188 62.1618 153.316 62.1298C153.572 62.0657 153.829 61.9375 154.021 61.7453C154.117 61.6491 154.181 61.5851 154.246 61.521L154.598 61.1044V50.5626H150.431V28.5817C150.431 28.2933 150.431 27.9729 150.431 27.6845C150.431 26.9796 150.431 26.2747 150.431 25.5698C150.431 25.2814 150.431 24.993 150.431 24.7046C150.431 23.9997 150.431 23.2627 150.367 22.4937L150.207 21.1159H148.828C148.444 21.0839 148.027 21.0518 147.514 21.0518C147.001 21.0518 147.065 21.0518 146.841 21.0518C146.649 21.0518 146.456 21.0518 146.232 21.0518V16.8864L146.2 16.8223ZM129.468 32.6831H138.731V33.5803H129.468V32.6831ZM129.468 45.3077H138.699V50.4344H134.564V54.664H129.468V45.3077Z" fill="black"/>
<path d="M72.3465 124.581V120.447H68.1794V110.707L68.7564 110.546C69.3013 110.386 74.7185 110.354 76.3854 110.354C78.0522 110.354 81.0012 110.354 81.6743 110.45L82.3475 110.546V114.52H93.278V111.988H89.143V107.823C88.9827 107.823 88.8224 107.823 88.6301 107.823C88.4378 107.823 87.6044 107.823 87.4121 107.823H87.1556C86.803 107.823 86.4184 107.823 86.0658 107.823H72.6671L72.5068 107.246C72.4106 106.894 72.3465 103.305 72.3145 96.6401C72.3145 94.9739 72.3145 86.5789 72.4106 85.7778L72.5068 85.1049H80.6486V80.9395H99.0798V81.7085C99.1439 82.4134 99.1439 83.1183 99.1439 83.7912C99.1439 84.2077 99.1439 84.6243 99.1439 85.0408H103.279V95.1341H93.4062V94.3971C93.3101 93.6602 93.3101 92.8912 93.3101 92.1862C93.3101 91.8017 93.3101 91.4172 93.3101 91.0007H82.3795V97.7295C82.8924 97.7295 83.4373 97.7295 83.9502 97.7295H86.803H103.311V101.959H107.478V116.218H103.343V120.447H99.1439V124.581H72.3145H72.3465Z" fill="white"/>
<path d="M98.3426 81.7396C98.4068 83.0854 98.3426 84.4311 98.3747 85.841H102.478V94.3322H94.1435C94.0474 92.9543 94.1435 91.5765 94.0794 90.1987H81.5782V98.5297C82.3796 98.5297 83.1489 98.5297 83.9502 98.5297C84.7516 98.5297 85.553 98.5297 86.3543 98.5297C87.1557 98.5297 86.6428 98.5297 86.8031 98.5297C87.4762 98.5297 88.1814 98.5297 88.8546 98.5297C89.9124 98.5297 90.9702 98.5297 92.0279 98.5297H97.1887C98.9196 98.5297 100.683 98.5297 102.51 98.5297V102.759H106.677V115.416H102.542V119.645H98.3426V123.779H73.1159V119.645H68.9488V111.282C69.2373 111.186 72.9877 111.122 76.3534 111.122C79.7191 111.122 81.0333 111.122 81.5141 111.218V115.288H94.0474V111.154H89.9124V107.021C89.4636 107.021 89.0148 107.021 88.5981 107.021C88.1814 107.021 87.7647 107.021 87.3801 107.021C86.9954 107.021 87.2198 107.021 87.1236 107.021C86.771 107.021 86.4184 107.021 86.0338 107.021C85.4568 107.021 84.9119 107.021 84.3349 107.021H73.212C73.0518 106.412 72.9877 86.9304 73.1479 85.873H81.418V81.7076H98.2785M99.8171 80.1055H79.8152V84.2709H71.7696L71.5452 85.6167C71.417 86.4178 71.417 93.5631 71.417 96.6071C71.417 106.797 71.5452 107.181 71.6414 107.437L71.9619 108.591H85.1363H85.9697C86.3223 108.591 86.6749 108.591 87.0275 108.591C87.1236 108.591 87.1877 108.591 87.2839 108.591C87.4762 108.591 87.7006 108.591 87.8929 108.591C87.9891 108.591 88.1173 108.591 88.2135 108.591V112.756H92.3485V113.686H83.0207V109.841L81.6423 109.648C80.9692 109.552 78.3407 109.52 76.2572 109.52C69.1091 109.52 68.5962 109.68 68.4039 109.744L67.282 110.097V121.248H71.449V125.381H99.8813V121.248H104.08V117.018H108.215V101.157H104.048V96.9276H97.1246H91.9638H90.3932H88.8225C88.1494 96.9276 87.4442 96.9276 86.771 96.9276H86.3223H85.1363H83.9502C83.6938 96.9276 83.4374 96.9276 83.1809 96.9276V91.7688H92.5088C92.5088 91.897 92.5088 92.0251 92.5088 92.1533C92.5088 92.8903 92.5088 93.6593 92.5408 94.4283L92.637 95.9343H104.08V84.2389H99.9454C99.9454 84.0787 99.9454 83.9185 99.9454 83.7903C99.9454 83.0854 99.9454 82.3805 99.9454 81.6755L99.8813 80.1375L99.8171 80.1055Z" fill="black"/>
<path d="M165.785 57.2914C163.477 57.2914 158.06 57.2914 157.163 57.1953H156.65C156.65 57.1632 156.489 56.6505 156.489 56.6505C156.233 55.8495 156.233 44.6027 156.393 43.6094L156.489 42.9365H166.234V43.7055C166.298 44.4425 166.298 45.2115 166.298 45.9165C166.298 46.301 166.298 46.6855 166.298 47.07H177.197V44.5066H168.862V40.3411H160.496V39.5721C160.432 38.8031 160.464 38.0661 160.464 37.3292C160.464 36.9447 160.464 36.5281 160.464 36.1116C160.272 36.1116 160.015 36.1116 159.791 36.1116C159.567 36.1116 159.31 36.1116 159.086 36.1116C158.829 36.1116 158.605 36.1116 158.381 36.1116C157.932 36.1116 157.547 36.1116 157.227 36.1116H156.65L156.489 35.5028C156.265 34.6697 156.297 23.3909 156.425 22.5257L156.521 21.8528H160.464V17.6233H164.663V13.7782L165.24 13.618C165.849 13.4258 174.023 13.4258 175.626 13.4258C177.229 13.4258 181.78 13.4258 182.421 13.5219L183.095 13.618V17.6233H187.294V21.8208C188.095 21.8208 188.896 21.8208 189.666 21.8208L189.441 20.3469L190.948 21.8208H191.268L191.332 22.2053L192.711 23.4229H191.493C191.493 24.3842 191.493 25.3134 191.493 26.2747C191.493 26.4349 191.493 26.5951 191.461 26.7553C191.461 26.8194 191.461 26.8835 191.461 26.9475L191.397 27.6845H177.293V23.519H170.529C170.529 23.7113 170.529 23.9035 170.529 24.0958C170.529 24.3201 170.529 24.5444 170.529 24.7687C170.529 25.2173 170.529 25.6979 170.529 26.1785C170.529 26.4028 170.529 26.6592 170.529 26.8835V27.6845H166.394V30.2479H187.326V34.4454H191.461V48.7362H187.326V52.9657H183.159V56.9069L182.582 57.0671C181.844 57.2594 166.01 57.2593 165.849 57.2593L165.785 57.2914Z" fill="white"/>
<path d="M175.594 14.2259C178.895 14.2259 181.812 14.2259 182.293 14.3221V18.4235H186.492V22.621C187.903 22.621 189.249 22.621 190.595 22.621C190.595 22.8132 190.659 23.0055 190.691 23.1977C190.691 24.2231 190.691 25.2484 190.691 26.2738C190.691 26.466 190.691 26.6583 190.627 26.9146H178.062V22.7491H169.792C169.6 23.422 169.728 24.0949 169.696 24.7998C169.696 25.4727 169.696 26.1776 169.696 26.9467H165.561V31.1121H186.492V35.3096H190.627V47.9983H186.492V52.2279H182.325V56.3292C181.908 56.4254 172.933 56.5215 165.785 56.5215C158.637 56.5215 157.868 56.5215 157.227 56.4254C157.066 55.9127 157.002 44.8582 157.162 43.7687H165.465C165.529 45.1466 165.464 46.4923 165.497 47.9022H177.998V43.7367H169.664V39.5712H161.265C161.233 38.1614 161.265 36.8156 161.265 35.3737C160.785 35.3737 160.272 35.3417 159.791 35.3417C159.31 35.3417 158.829 35.3417 158.348 35.3417C157.868 35.3417 157.611 35.3417 157.227 35.3417C157.066 34.7329 157.034 23.6463 157.194 22.6851H161.265V18.4555H165.465V14.3862C165.817 14.29 171.074 14.2259 175.626 14.2259M175.626 12.6238C165.753 12.6238 165.176 12.784 164.984 12.8481L163.83 13.2006V16.8534H159.631V21.083H155.784L155.56 22.4287C155.431 23.2618 155.367 34.6688 155.624 35.7262L155.912 36.8797L157.098 36.9438C157.451 36.9438 157.836 36.9438 158.284 36.9438C158.733 36.9438 158.765 36.9438 159.022 36.9438C159.214 36.9438 159.406 36.9438 159.631 36.9438C159.631 37.072 159.631 37.2322 159.631 37.3603C159.631 38.0973 159.631 38.8663 159.631 39.6353L159.695 41.1733H168.029V45.3388H176.363V46.3001H167.067C167.067 46.1719 167.067 46.0758 167.067 45.9476C167.067 45.2106 167.067 44.4416 167.067 43.7047L167.003 42.1666H155.816L155.592 43.5124C155.464 44.3455 155.464 48.543 155.464 50.3053C155.464 56.2972 155.624 56.6817 155.688 56.906L156.008 57.8993L157.066 57.9954C157.964 58.0595 162.9 58.0916 165.753 58.0916C168.606 58.0916 173.446 58.0916 176.555 58.0275C182.229 57.9634 182.453 57.8993 182.71 57.8352L183.896 57.5148V53.7659H188.063V49.5363H192.198V33.6434H188.063V29.4459H167.131V28.4847H171.266V26.8826C171.266 26.6262 171.266 26.4019 171.266 26.1776C171.266 25.697 171.266 25.2484 171.266 24.7998C171.266 24.6396 171.266 24.4794 171.266 24.3192H176.427V28.4847H192.07L192.198 27.0107C192.198 26.9467 192.198 26.8826 192.198 26.8185C192.198 26.6583 192.23 26.466 192.23 26.2417C192.23 25.6329 192.23 24.928 192.23 24.191H194.858L192.005 21.7558L191.877 21.0189H191.172L188.191 18.103L188.64 21.0189C188.415 21.0189 188.223 21.0189 187.999 21.0189V16.8214H183.8V12.9122L182.421 12.72C181.908 12.6559 179.568 12.5918 175.498 12.5918L175.626 12.6238Z" fill="black"/>
<path d="M114.306 120.414V116.281H110.427L110.267 115.672C110.139 115.192 110.107 107.309 110.075 100.773C110.075 98.4015 110.075 86.4818 110.203 85.7449L110.331 85.072H114.274V80.9065H118.505V76.709H141.135V80.8745H145.302V90.8716H131.134V86.7702C130.301 86.7061 128.73 86.6741 126.871 86.6741C125.012 86.6741 124.98 86.6741 124.403 86.7061V95.1011H120.236C120.14 97.248 120.108 103.849 120.172 106.124C120.364 106.124 120.589 106.124 120.813 106.124C121.037 106.124 121.262 106.124 121.486 106.124C121.71 106.124 121.967 106.124 122.191 106.124C122.736 106.124 123.185 106.124 123.602 106.156L124.307 106.22V106.925C124.371 107.63 124.371 108.335 124.339 109.039C124.339 109.424 124.339 109.841 124.339 110.257H131.038V106.22L131.776 106.156C132.385 106.124 132.962 106.124 133.378 106.124C133.795 106.124 134.436 106.124 134.628 106.124C134.821 106.124 134.981 106.124 135.205 106.124V101.926H145.238V111.955H141.103V116.153H136.904V120.35H114.242L114.306 120.414Z" fill="white"/>
<path d="M140.334 77.5419V81.7074H144.501V90.1024H131.936V86.0972C131.551 85.969 129.083 85.9049 126.871 85.9049C125.397 85.9049 124.082 85.9049 123.602 86.001V94.364H119.531C119.338 95.0049 119.306 105.675 119.435 106.957C119.883 106.989 120.364 107.021 120.813 107.021C121.262 107.021 121.743 107.021 122.191 107.021C122.64 107.021 123.089 107.021 123.538 107.053C123.602 108.398 123.538 109.744 123.57 111.154H131.872V107.053C132.385 107.021 132.897 107.021 133.442 107.021C133.987 107.021 134.276 107.021 134.692 107.021C135.109 107.021 135.59 107.021 136.071 107.021V102.855H144.501V111.282H140.366V115.48H136.167V119.677H115.107V115.544H111.036C110.876 114.871 110.812 86.8662 111.004 85.969H115.075V81.8035H119.306V77.606H140.334M141.937 76.0039H117.704V80.2014H113.472V84.3669H109.658L109.434 85.6806C109.305 86.4176 109.305 95.4855 109.305 100.837C109.305 115.255 109.434 115.704 109.498 115.928L109.818 117.114H113.505V121.247H137.77V117.05H141.969V112.852H146.104V101.221H134.468V105.419C134.34 105.419 134.212 105.419 134.083 105.419C133.859 105.419 133.667 105.419 133.442 105.419C132.994 105.419 132.385 105.419 131.776 105.483L130.269 105.579V109.584H125.172C125.172 109.456 125.172 109.296 125.172 109.167C125.172 108.463 125.172 107.758 125.172 107.021L125.108 105.579L123.698 105.483C123.249 105.451 122.8 105.419 122.223 105.419C121.646 105.419 121.743 105.419 121.518 105.419C121.358 105.419 121.166 105.419 121.005 105.419C120.973 103.015 121.005 98.3052 121.069 95.9982H125.236V87.5711C125.685 87.5711 126.262 87.5711 126.903 87.5711C128.314 87.5711 129.532 87.5711 130.365 87.6352V91.7686H146.136V80.1694H141.969V76.0039H141.937Z" fill="black"/>
<path d="M202.52 111.955V111.186C202.455 110.577 202.455 109.936 202.455 109.327C202.455 109.039 202.455 108.751 202.455 108.462C202.455 107.789 202.455 107.149 202.455 106.476V103.624H198.288V102.823C198.288 100.58 198.288 98.369 198.288 96.1581C198.288 94.4599 198.288 92.7296 198.288 90.9993H194.057V78.3748H190.243L190.05 77.83C189.794 76.9969 189.794 70.0118 189.954 69.0505L190.05 68.3776H204.09V80.9381C204.379 80.9381 204.635 80.9381 204.86 80.9381C205.084 80.9381 205.981 80.9381 206.206 80.9381C206.687 80.9381 207.071 80.9381 207.456 80.9381H208.129L208.225 81.611C208.321 82.2518 208.321 82.8606 208.289 83.4694C208.289 83.7258 208.289 83.9821 208.289 84.2385C208.289 84.8152 208.289 85.392 208.289 85.9687V86.7057V93.4986H210.822V76.7086H215.021V64.084H229.253V74.0491H225.086V74.1132C225.086 74.722 225.086 75.2667 225.086 75.8434C225.086 76.4202 225.086 76.9969 225.086 77.5417V86.4494L224.509 86.6096C224.028 86.7377 223.579 86.7698 223.259 86.7698C222.938 86.7698 222.938 86.7698 222.778 86.7698C222.65 86.7698 222.489 86.7698 222.361 86.7698C222.233 86.7698 222.265 86.7698 222.201 86.7698C221.945 86.7698 221.656 86.7698 221.4 86.7698C221.143 86.7698 221.047 86.7698 220.887 86.7698C220.887 88.7564 220.887 90.743 220.887 92.7616C220.887 94.7162 220.887 96.6387 220.887 98.6253V99.4264H216.72V107.853H208.321C208.321 108.334 208.321 108.815 208.321 109.295C208.321 109.936 208.321 110.577 208.321 111.25V112.019H202.552L202.52 111.955Z" fill="white"/>
<path d="M228.451 64.8529V73.2159H224.284C224.284 74.1131 224.284 74.9462 224.284 75.7792C224.284 76.6123 224.284 77.4134 224.284 78.2465V85.7764C223.932 85.8725 223.579 85.9045 223.227 85.9045C222.874 85.9045 222.65 85.9045 222.361 85.9045C222.297 85.9045 222.233 85.9045 222.201 85.9045C221.944 85.9045 221.688 85.9045 221.432 85.9045C221.015 85.9045 220.598 85.9045 220.117 85.9045C220.117 90.1341 220.117 94.2996 220.117 98.5291H215.95V106.956H207.584C207.488 108.366 207.584 109.712 207.52 111.122H203.321C203.289 110.224 203.321 109.327 203.321 108.43C203.321 107.469 203.321 106.54 203.321 105.578V102.759H199.154C199.154 98.5291 199.154 94.3636 199.154 90.1341H194.923V77.5095H190.884C190.691 76.9007 190.659 70.1719 190.82 69.0825H203.353V81.6429C203.898 81.6429 204.411 81.675 204.924 81.675C205.436 81.675 205.821 81.675 206.27 81.675C206.719 81.675 207.071 81.675 207.488 81.675C207.616 82.5401 207.52 83.3732 207.552 84.1743C207.552 85.0074 207.552 85.8084 207.552 86.6415V94.2355H211.687V77.4454H215.886V64.8209H228.516M230.118 63.2188H214.283V75.8433H210.084V92.6334H209.155V86.6415C209.155 86.3852 209.155 86.1609 209.155 85.9045C209.155 85.3278 209.155 84.751 209.155 84.1743C209.155 83.95 209.155 83.6936 209.155 83.4373C209.155 82.8285 209.155 82.1556 209.091 81.4507L208.898 80.137L207.552 80.0729C207.167 80.0729 206.783 80.0729 206.27 80.0729C205.757 80.0729 205.821 80.0729 205.565 80.0729C205.34 80.0729 205.116 80.0729 204.924 80.0729V67.4803H189.409L189.217 68.8582C189.057 69.8515 189.025 76.9648 189.345 78.0222L189.698 79.1437H193.288V91.7682H197.519C197.519 93.2422 197.519 94.6841 197.519 96.158C197.519 98.3689 197.519 100.58 197.519 102.823V104.425H201.686V106.508C201.686 107.18 201.686 107.821 201.686 108.494C201.686 108.783 201.686 109.071 201.686 109.359C201.686 109.968 201.686 110.641 201.686 111.25L201.75 112.788H208.994L209.059 111.25C209.059 110.577 209.059 109.904 209.059 109.263C209.059 109.039 209.059 108.847 209.059 108.622H217.457V100.195H221.624V98.5932C221.624 96.6386 221.624 94.6841 221.624 92.7615C221.624 91.0313 221.624 89.301 221.624 87.5707C221.816 87.5707 222.009 87.5707 222.169 87.5707C222.201 87.5707 222.265 87.5707 222.297 87.5707C222.425 87.5707 222.553 87.5707 222.682 87.5707C222.842 87.5707 223.002 87.5707 223.162 87.5707C223.515 87.5707 224.06 87.5707 224.637 87.3785L225.791 87.0581V77.5416C225.791 76.9648 225.791 76.4201 225.791 75.8433C225.791 75.5229 225.791 75.2025 225.791 74.85H229.958V63.2828L230.118 63.2188Z" fill="black"/>
<path d="M93.3421 65.623V23.4876H76.5457V13.4584H84.9118V9.29297H120.108V19.2901H107.574V23.4876H103.375V65.623H93.3421Z" fill="white"/>
<path d="M119.306 10.0931V18.4882H106.741V22.6857H102.542V64.821H94.1115V22.6857H77.3471V14.2266H85.7133V10.0611H119.306M120.909 8.45898H84.1106V12.6245H75.7444V24.2878H92.5088V66.3911H104.145V24.2878H108.344V20.0903H120.909V8.49103V8.45898Z" fill="black"/>
<path d="M57.3452 128.906C55.6464 128.906 52.6974 128.906 52.1524 128.81L51.6396 128.746L51.5113 128.233C51.4152 127.881 51.3511 120.735 51.3511 107.053C51.3511 100.837 51.3511 86.3543 51.4793 85.7776L51.6075 85.1367H65.5832V128.586L65.0062 128.746C64.4293 128.906 58.5312 128.906 57.3773 128.906H57.3452Z" fill="white"/>
<path d="M64.7497 85.9056V127.945C64.4292 128.041 60.6468 128.073 57.3131 128.073C53.9794 128.073 52.6332 128.073 52.2485 127.977C52.0882 127.4 52.0562 86.6746 52.2485 85.8736H64.7497M66.3524 84.2715H50.9343L50.6778 85.5532C50.6458 85.7454 50.5176 86.2901 50.5176 107.021C50.5176 127.753 50.6458 128.169 50.7099 128.425L50.9663 129.451L51.9921 129.611C52.4408 129.675 54.2359 129.707 57.3131 129.707C64.4292 129.707 64.9741 129.547 65.1664 129.515L66.3524 129.194V84.3356V84.2715Z" fill="black"/>
<path d="M273.872 103.529V59.8557H283.873V63.9571H286.406V59.8237H290.605V55.6582H296.375V69.8528H288.072V73.9863H287.303C286.726 74.0504 286.149 74.0504 285.7 74.0504H284.386C284.226 74.0504 284.034 74.0504 283.873 74.0504C283.873 74.9475 283.873 75.8447 283.873 76.7099C283.873 77.2546 283.873 77.7993 283.873 78.344C283.873 79.4975 283.873 80.6831 283.873 81.8366V99.3636H279.61V103.529H273.84H273.872Z" fill="white"/>
<path d="M295.573 56.4584V69.0509H287.271V73.2164C286.726 73.2164 286.213 73.2164 285.701 73.2164C285.188 73.2164 284.835 73.2164 284.386 73.2164C283.938 73.2164 283.521 73.2164 283.072 73.2164C283.072 74.9466 283.072 76.6128 283.072 78.3111C283.072 79.9773 283.072 81.6434 283.072 83.3096V98.5296H278.809V102.695H274.642V60.6238H283.04V64.7252H287.175V60.5918H291.374V56.4263H295.541M297.144 54.8242H289.771V58.9897H285.572V63.1231H284.643V59.0217H273.039V104.297H280.412V100.132H284.675V81.8037C284.675 80.6501 284.675 79.4966 284.675 78.3431C284.675 77.7984 284.675 77.2537 284.675 76.709C284.675 76.1002 284.675 75.4593 284.675 74.8505C284.803 74.8505 284.931 74.8505 285.059 74.8505C285.284 74.8505 285.508 74.8505 285.701 74.8505C286.149 74.8505 286.726 74.8505 287.335 74.8505L288.874 74.7864V70.685H297.176V54.8883L297.144 54.8242Z" fill="black"/>
<path d="M51.6714 82.4756L51.5111 81.8989C51.2547 81.0978 51.2547 74.369 51.415 73.1834L51.5111 72.4785H65.3266L65.4868 73.0553C65.7112 73.7922 65.6792 80.6492 65.5509 81.7707L65.4548 82.4756H51.7035H51.6714Z" fill="white"/>
<path d="M64.6856 73.2798C64.8459 73.7925 64.8779 80.3611 64.7497 81.6749H52.3126C52.1523 81.1301 52.0882 74.6256 52.2485 73.2798H64.7177M65.9357 71.6777H50.8061L50.6458 73.0876C50.5176 74.0809 50.4855 81.0981 50.774 82.1235L51.1266 83.2449H66.1922L66.3524 81.8351C66.4806 80.7136 66.5127 73.7605 66.2563 72.8313L65.9357 71.6777Z" fill="black"/>
</g>
<defs>
<clipPath id="clip0_166_4046">
<rect width="335" height="134" fill="white"/>
</clipPath>
</defs>
</svg>
